<svg xmlns="http://www.w3.org/2000/svg" xmlns:xlink="http://www.w3.org/1999/xlink" version="1.1" viewBox="5.96 16.51 24.16 3.94">
<g id="surface1">
<path style=" stroke:none;fill-rule:nonzero;fill:rgb(67.450982%,41.568628%,100%);fill-opacity:1;" d="M 9.429688 17.644531 L 9.429688 17.132812 L 8.480469 16.511719 L 8.480469 16.910156 L 9.105469 17.320312 L 9.109375 17.636719 L 8.816406 17.832031 L 8.617188 17.6875 L 8.617188 17.445312 L 8.296875 17.222656 L 8.296875 17.667969 L 7.785156 17.984375 L 7.785156 18.8125 L 7.421875 19.015625 L 7.234375 18.871094 L 7.234375 18.628906 L 7.457031 18.480469 L 7.457031 18.105469 L 7.058594 18.371094 L 6.757812 18.175781 L 6.480469 18.355469 L 6.914062 18.648438 L 6.914062 18.832031 L 6.601562 19.042969 L 6.285156 18.828125 L 6.285156 18.113281 L 6.753906 17.792969 L 6.757812 17.484375 L 7.359375 17.875 L 7.867188 17.535156 L 7.558594 17.355469 L 7.355469 17.492188 L 6.914062 17.199219 L 7.414062 16.910156 L 7.84375 17.164062 L 7.84375 16.789062 L 7.414062 16.535156 L 6.433594 17.105469 L 6.433594 17.617188 L 5.960938 17.9375 L 5.960938 19.003906 L 6.433594 19.320312 L 6.433594 19.835938 L 7.378906 20.453125 L 7.378906 20.058594 L 6.757812 19.648438 L 6.753906 19.332031 L 7.046875 19.136719 L 7.242188 19.277344 L 7.242188 19.523438 L 7.566406 19.746094 L 7.566406 19.296875 L 8.085938 18.984375 L 8.09375 18.15625 L 8.441406 17.953125 L 8.625 18.097656 L 8.625 18.335938 L 8.40625 18.488281 L 8.40625 18.863281 L 8.804688 18.597656 L 9.105469 18.792969 L 9.382812 18.613281 L 8.949219 18.316406 L 8.949219 18.136719 L 9.261719 17.925781 L 9.578125 18.140625 L 9.578125 18.855469 L 9.109375 19.175781 L 9.105469 19.480469 L 8.503906 19.089844 L 7.996094 19.429688 L 8.304688 19.609375 L 8.507812 19.472656 L 8.949219 19.765625 L 8.449219 20.058594 L 8.019531 19.804688 L 8.019531 20.179688 L 8.449219 20.433594 L 9.429688 19.863281 L 9.429688 19.347656 L 9.902344 19.03125 L 9.902344 17.964844 Z M 9.429688 17.644531 "/>
<path style=" stroke:none;fill-rule:nonzero;fill:rgb(100%,100%,100%);fill-opacity:1;" d="M 12.144531 17.203125 L 12.960938 17.203125 L 13.523438 18.527344 L 14.09375 17.203125 L 14.90625 17.203125 L 14.90625 19.683594 L 14.300781 19.683594 L 14.300781 17.867188 L 13.730469 19.207031 L 13.324219 19.207031 L 12.75 17.867188 L 12.75 19.683594 L 12.144531 19.683594 Z M 12.144531 17.203125 "/>
<path style=" stroke:none;fill-rule:nonzero;fill:rgb(100%,100%,100%);fill-opacity:1;" d="M 15.503906 17.820312 L 16.101562 17.820312 L 16.101562 19.683594 L 15.503906 19.683594 Z M 15.503906 17.097656 L 16.101562 17.097656 L 16.101562 17.582031 L 15.503906 17.582031 Z M 15.503906 17.097656 "/>
<path style=" stroke:none;fill-rule:nonzero;fill:rgb(100%,100%,100%);fill-opacity:1;" d="M 18.542969 18.550781 L 18.542969 19.683594 L 17.945312 19.683594 L 17.945312 18.816406 C 17.945312 18.65625 17.941406 18.542969 17.933594 18.484375 C 17.925781 18.421875 17.914062 18.375 17.894531 18.347656 C 17.871094 18.308594 17.839844 18.277344 17.800781 18.257812 C 17.761719 18.234375 17.714844 18.226562 17.664062 18.226562 C 17.539062 18.226562 17.441406 18.273438 17.371094 18.371094 C 17.300781 18.464844 17.265625 18.597656 17.265625 18.765625 L 17.265625 19.683594 L 16.671875 19.683594 L 16.671875 17.820312 L 17.265625 17.820312 L 17.265625 18.09375 C 17.355469 17.984375 17.449219 17.90625 17.550781 17.855469 C 17.652344 17.800781 17.765625 17.777344 17.886719 17.777344 C 18.101562 17.777344 18.265625 17.84375 18.375 17.976562 C 18.488281 18.105469 18.542969 18.296875 18.542969 18.550781 Z M 18.542969 18.550781 "/>
<path style=" stroke:none;fill-rule:nonzero;fill:rgb(100%,100%,100%);fill-opacity:1;" d="M 20.359375 18.09375 L 20.359375 17.097656 L 20.957031 17.097656 L 20.957031 19.683594 L 20.359375 19.683594 L 20.359375 19.414062 C 20.277344 19.523438 20.1875 19.601562 20.089844 19.65625 C 19.992188 19.703125 19.875 19.730469 19.746094 19.730469 C 19.515625 19.730469 19.328125 19.640625 19.183594 19.457031 C 19.035156 19.273438 18.960938 19.039062 18.960938 18.753906 C 18.960938 18.464844 19.035156 18.230469 19.183594 18.050781 C 19.328125 17.867188 19.515625 17.777344 19.746094 17.777344 C 19.875 17.777344 19.988281 17.800781 20.085938 17.855469 C 20.1875 17.90625 20.277344 17.984375 20.359375 18.09375 Z M 19.96875 19.300781 C 20.09375 19.300781 20.191406 19.253906 20.257812 19.160156 C 20.328125 19.066406 20.359375 18.929688 20.359375 18.753906 C 20.359375 18.574219 20.328125 18.441406 20.257812 18.347656 C 20.191406 18.253906 20.09375 18.207031 19.96875 18.207031 C 19.84375 18.207031 19.746094 18.253906 19.675781 18.347656 C 19.609375 18.441406 19.578125 18.574219 19.578125 18.753906 C 19.578125 18.929688 19.609375 19.066406 19.675781 19.160156 C 19.746094 19.253906 19.84375 19.300781 19.96875 19.300781 Z M 19.96875 19.300781 "/>
<path style=" stroke:none;fill-rule:nonzero;fill:rgb(100%,100%,100%);fill-opacity:1;" d="M 23.28125 17.28125 L 23.28125 17.804688 C 23.144531 17.742188 23.011719 17.699219 22.882812 17.667969 C 22.753906 17.636719 22.632812 17.621094 22.515625 17.621094 C 22.363281 17.621094 22.25 17.640625 22.179688 17.683594 C 22.105469 17.726562 22.070312 17.789062 22.070312 17.878906 C 22.070312 17.945312 22.09375 17.996094 22.140625 18.035156 C 22.191406 18.070312 22.28125 18.105469 22.410156 18.128906 L 22.683594 18.183594 C 22.957031 18.242188 23.15625 18.324219 23.269531 18.4375 C 23.386719 18.550781 23.445312 18.710938 23.445312 18.917969 C 23.445312 19.195312 23.363281 19.398438 23.203125 19.53125 C 23.039062 19.664062 22.792969 19.730469 22.457031 19.730469 C 22.300781 19.730469 22.144531 19.714844 21.984375 19.683594 C 21.828125 19.65625 21.667969 19.609375 21.511719 19.550781 L 21.511719 19.011719 C 21.667969 19.097656 21.820312 19.160156 21.96875 19.203125 C 22.117188 19.246094 22.257812 19.265625 22.398438 19.265625 C 22.535156 19.265625 22.644531 19.242188 22.71875 19.195312 C 22.792969 19.152344 22.828125 19.085938 22.828125 19 C 22.828125 18.921875 22.804688 18.859375 22.753906 18.816406 C 22.703125 18.777344 22.601562 18.738281 22.453125 18.707031 L 22.203125 18.652344 C 21.957031 18.597656 21.773438 18.511719 21.660156 18.398438 C 21.546875 18.28125 21.488281 18.125 21.488281 17.925781 C 21.488281 17.679688 21.566406 17.488281 21.726562 17.355469 C 21.886719 17.222656 22.117188 17.15625 22.414062 17.15625 C 22.550781 17.15625 22.691406 17.167969 22.835938 17.1875 C 22.980469 17.207031 23.128906 17.238281 23.28125 17.28125 Z M 23.28125 17.28125 "/>
<path style=" stroke:none;fill-rule:nonzero;fill:rgb(100%,100%,100%);fill-opacity:1;" d="M 23.738281 17.820312 L 24.332031 17.820312 L 24.832031 19.085938 L 25.257812 17.820312 L 25.851562 17.820312 L 25.070312 19.859375 C 24.992188 20.066406 24.898438 20.210938 24.792969 20.292969 C 24.6875 20.375 24.550781 20.417969 24.378906 20.417969 L 24.035156 20.417969 L 24.035156 20.027344 L 24.222656 20.027344 C 24.324219 20.027344 24.394531 20.011719 24.441406 19.976562 C 24.488281 19.945312 24.523438 19.886719 24.546875 19.804688 L 24.566406 19.753906 Z M 23.738281 17.820312 "/>
<path style=" stroke:none;fill-rule:nonzero;fill:rgb(100%,100%,100%);fill-opacity:1;" d="M 28.070312 18.550781 L 28.070312 19.683594 L 27.472656 19.683594 L 27.472656 18.816406 C 27.472656 18.65625 27.46875 18.542969 27.460938 18.484375 C 27.453125 18.421875 27.441406 18.375 27.421875 18.347656 C 27.398438 18.308594 27.367188 18.277344 27.328125 18.257812 C 27.289062 18.234375 27.242188 18.226562 27.191406 18.226562 C 27.066406 18.226562 26.96875 18.273438 26.898438 18.371094 C 26.828125 18.464844 26.792969 18.597656 26.792969 18.765625 L 26.792969 19.683594 L 26.199219 19.683594 L 26.199219 17.820312 L 26.792969 17.820312 L 26.792969 18.09375 C 26.882812 17.984375 26.976562 17.90625 27.078125 17.855469 C 27.179688 17.800781 27.292969 17.777344 27.414062 17.777344 C 27.628906 17.777344 27.789062 17.84375 27.902344 17.976562 C 28.011719 18.105469 28.070312 18.296875 28.070312 18.550781 Z M 28.070312 18.550781 "/>
<path style=" stroke:none;fill-rule:nonzero;fill:rgb(100%,100%,100%);fill-opacity:1;" d="M 30.125 17.878906 L 30.125 18.363281 C 30.042969 18.308594 29.960938 18.269531 29.882812 18.242188 C 29.800781 18.214844 29.714844 18.203125 29.628906 18.203125 C 29.460938 18.203125 29.332031 18.25 29.238281 18.347656 C 29.148438 18.445312 29.101562 18.578125 29.101562 18.753906 C 29.101562 18.925781 29.148438 19.0625 29.238281 19.160156 C 29.332031 19.257812 29.460938 19.304688 29.628906 19.304688 C 29.722656 19.304688 29.808594 19.292969 29.890625 19.265625 C 29.976562 19.234375 30.054688 19.195312 30.125 19.140625 L 30.125 19.628906 C 30.03125 19.660156 29.9375 19.6875 29.839844 19.703125 C 29.746094 19.722656 29.648438 19.730469 29.554688 19.730469 C 29.21875 19.730469 28.953125 19.644531 28.765625 19.472656 C 28.574219 19.300781 28.480469 19.0625 28.480469 18.753906 C 28.480469 18.445312 28.574219 18.207031 28.765625 18.035156 C 28.953125 17.863281 29.21875 17.777344 29.554688 17.777344 C 29.652344 17.777344 29.746094 17.785156 29.839844 17.800781 C 29.9375 17.820312 30.03125 17.84375 30.125 17.878906 Z M 30.125 17.878906 "/>
</g>
</svg>